<?xml version="1.0" standalone="no"?>
<!DOCTYPE svg PUBLIC "-//W3C//DTD SVG 20010904//EN"
 "http://www.w3.org/TR/2001/REC-SVG-20010904/DTD/svg10.dtd">
<svg version="1.0" xmlns="http://www.w3.org/2000/svg"
 width="120.000000pt" height="120.000000pt" viewBox="0 0 120.000000 120.000000"
 preserveAspectRatio="xMidYMid meet">
<metadata>
Created by potrace 1.10, written by Peter Selinger 2001-2011
</metadata>
<g transform="translate(0.000000,120.000000) scale(0.100000,-0.100000)"
fill="#134f5c" stroke="none">
<path d="M167 1193 c-5 -7 -5 -18 -2 -23 3 -6 3 -19 0 -31 -5 -14 -12 -18 -26
-14 -25 8 -34 -16 -21 -55 9 -24 8 -30 -3 -30 -7 0 -15 -6 -18 -12 -3 -10 -7
-10 -20 1 -10 7 -17 10 -17 6 0 -3 -12 3 -27 14 -36 29 -43 17 -10 -17 24 -24
35 -27 97 -28 l70 0 -19 20 c-24 27 -54 86 -47 94 7 6 5 9 31 -43 14 -27 34
-47 65 -63 25 -14 70 -40 102 -58 65 -40 68 -40 68 -15 0 25 -87 121 -109 121
-9 0 -22 5 -29 12 -9 9 -12 9 -12 -2 0 -7 20 -33 45 -57 51 -48 50 -56 -2 -17
-47 36 -83 93 -97 156 -7 33 -15 48 -19 41z"/>
<path d="M194 1184 c3 -9 6 -20 6 -24 0 -17 62 -80 79 -80 9 0 31 -10 48 -22
35 -25 140 -148 126 -148 -4 0 -14 -4 -22 -9 -12 -7 -8 -16 16 -48 36 -45 117
-192 111 -199 -3 -2 -16 11 -29 31 -13 19 -30 37 -37 40 -7 2 7 -23 31 -58 25
-34 52 -77 61 -95 l17 -33 25 47 c14 25 38 67 55 93 l30 46 -35 -39 c-20 -22
-36 -35 -36 -30 0 16 80 157 112 197 25 31 28 41 17 48 -8 5 -18 9 -23 9 -5 0
-1 9 9 20 10 11 21 17 26 15 4 -3 11 0 15 6 4 8 3 9 -4 5 -7 -4 -12 -3 -12 3
0 19 108 121 128 121 28 0 72 38 88 76 16 39 17 44 6 44 -5 0 -17 -16 -28 -35
-12 -23 -35 -43 -70 -60 -45 -22 -151 -124 -177 -171 -11 -19 -27 -7 -69 54
-33 49 -62 64 -96 51 -13 -5 -21 -5 -18 0 3 5 -8 11 -25 13 -30 5 -77 -24 -72
-43 7 -24 -28 -4 -71 40 -31 32 -54 47 -64 43 -8 -3 -13 -1 -9 4 3 6 -3 10
-13 11 -22 2 -49 28 -69 66 -15 29 -37 38 -27 11z m376 -169 c34 -3 48 -15 93
-79 10 -14 35 -35 55 -46 44 -23 30 -26 -21 -5 -20 8 -50 33 -68 55 -34 42
-52 52 -43 23 5 -17 5 -17 -9 0 -8 9 -18 17 -22 17 -5 0 -17 8 -28 18 -20 17
-20 17 -2 -17 20 -39 22 -105 4 -127 -20 -24 -30 -16 -13 11 14 22 14 30 2 67
-10 34 -18 43 -36 42 -15 0 -22 5 -22 17 0 23 29 41 55 33 11 -4 36 -8 55 -9z
m-80 -76 c0 -6 -4 -7 -10 -4 -5 3 -10 11 -10 16 0 6 5 7 10 4 6 -3 10 -11 10
-16z m175 -64 c11 -8 15 -15 8 -15 -16 0 -73 49 -73 63 0 6 10 1 23 -11 12
-13 31 -29 42 -37z m-165 15 c0 -19 -17 -36 -27 -26 -3 3 -2 17 1 31 7 28 26
25 26 -5z m152 -43 l37 -13 -30 -45 c-16 -25 -35 -69 -41 -97 -7 -29 -15 -52
-19 -52 -3 0 -12 19 -18 43 -7 23 -23 59 -35 79 l-23 38 26 55 25 55 21 -25
c11 -14 37 -31 57 -38z"/>
<path d="M564 847 c-7 -34 -5 -49 10 -79 l18 -38 24 36 24 35 -33 44 -34 43
-9 -41z"/>
<path d="M1015 1158 c-9 -56 -46 -119 -92 -157 -55 -45 -59 -38 -8 14 25 24
45 50 45 57 0 9 -3 9 -12 0 -7 -7 -20 -12 -29 -12 -22 0 -109 -98 -109 -122 0
-24 5 -23 64 15 27 17 73 43 100 57 38 18 57 36 75 68 13 24 25 41 28 39 6 -7
-25 -68 -48 -93 l-19 -20 70 0 c62 1 73 4 97 28 34 34 24 47 -15 20 -15 -12
-42 -20 -60 -20 -27 1 -30 4 -22 19 15 28 12 69 -6 76 -9 3 -20 0 -25 -8 -6
-9 -9 0 -9 28 0 56 -17 63 -25 11z"/>
<path d="M0 998 c0 -25 6 -40 17 -47 12 -6 16 -20 15 -45 -2 -28 4 -42 33 -71
20 -21 39 -33 46 -29 8 4 9 3 5 -4 -4 -7 -2 -12 4 -12 7 0 8 -6 2 -17 -11 -18
4 -47 45 -93 13 -14 23 -32 23 -42 0 -20 42 -68 59 -68 15 0 14 -10 -5 -31
-12 -14 -13 -22 -4 -38 6 -12 15 -19 21 -16 5 4 9 1 9 -4 0 -6 5 -10 12 -9 6
2 14 -8 17 -21 4 -15 15 -25 30 -28 13 -2 32 -15 43 -28 l20 -26 34 20 33 20
-16 -37 c-54 -126 -59 -156 -33 -182 11 -11 26 -18 32 -14 8 5 9 -4 5 -29 -3
-22 -1 -42 8 -54 13 -17 16 -17 44 -1 29 16 31 16 41 -2 5 -10 10 -30 10 -44
l0 -26 -277 -3 -278 -2 297 -3 296 -2 -21 58 c-18 48 -22 77 -21 182 0 73 7
153 15 192 15 67 15 67 -12 122 -15 30 -39 72 -54 93 l-27 38 5 -48 c3 -26 18
-75 35 -109 l30 -60 -38 -82 c-41 -88 -60 -153 -41 -142 17 11 13 -9 -7 -34
-23 -28 -46 -18 -38 16 4 13 29 73 56 133 l50 109 -35 69 c-20 37 -40 96 -46
130 -6 34 -17 67 -25 74 -17 14 -17 11 1 -75 8 -38 28 -92 44 -121 l30 -53
-29 -40 c-29 -41 -70 -75 -78 -67 -3 3 7 14 22 26 14 11 33 34 41 50 14 27 14
32 -13 86 -28 56 -44 112 -57 201 -6 39 -11 45 -55 67 -50 25 -150 44 -150 28
0 -12 52 -42 103 -58 53 -17 18 -19 -55 -4 -67 14 -104 33 -145 72 -40 38 -42
49 -5 37 15 -4 63 -11 107 -14 97 -6 153 -25 208 -69 54 -43 67 -51 67 -38 0
34 -177 184 -232 196 -44 10 -143 -4 -129 -18 5 -5 18 -11 28 -12 10 -1 31 -8
47 -14 16 -7 49 -15 73 -18 24 -3 46 -10 50 -15 3 -6 -6 -8 -23 -4 -16 3 -51
8 -79 12 -27 3 -72 16 -99 27 -39 16 -52 29 -67 61 l-19 41 0 -37z m187 -44
c-3 -3 -12 -4 -19 -1 -8 3 -5 6 6 6 11 1 17 -2 13 -5z m147 -195 c-26 -29 -81
-51 -107 -43 -41 12 -3 -14 43 -30 l45 -15 -49 -1 c-44 0 -52 4 -90 42 -22 23
-45 41 -51 39 -5 -1 -5 3 1 9 9 9 18 8 38 -5 14 -10 35 -15 46 -12 10 3 21 0
23 -6 4 -14 70 9 92 33 10 11 20 18 23 15 3 -3 -3 -15 -14 -26z m0 -56 c-13
-9 -20 -10 -22 -3 -5 15 32 42 37 28 2 -6 -5 -17 -15 -25z m7 -42 c-12 -16
-31 -33 -43 -37 -19 -6 -20 -7 -4 -16 12 -7 25 -5 44 8 27 17 27 17 9 -3 -34
-39 -99 -33 -137 12 -12 14 -10 15 19 10 38 -6 97 18 112 47 6 11 13 17 16 14
3 -2 -4 -18 -16 -35z m49 -50 c0 -5 -12 -23 -26 -40 l-26 -31 24 0 23 0 -25
-20 c-35 -27 -110 -25 -110 3 0 6 3 8 6 4 11 -11 83 32 106 63 23 32 28 35 28
21z m5 -121 c-16 -31 -16 -32 6 -25 13 4 19 3 15 -3 -8 -13 -69 -24 -91 -16
-14 6 -12 9 13 20 17 7 38 27 48 46 9 18 19 28 21 21 2 -6 -3 -26 -12 -43z
m120 -179 c-14 -47 -25 -96 -25 -110 1 -25 1 -26 16 -6 15 19 16 18 9 -15 -19
-91 -45 -104 -45 -22 0 47 62 278 68 251 1 -8 -9 -52 -23 -98z"/>
<path d="M288 513 c7 -3 16 -2 19 1 4 3 -2 6 -13 5 -11 0 -14 -3 -6 -6z"/>
<path d="M480 160 c0 -5 5 -10 11 -10 5 0 7 5 4 10 -3 6 -8 10 -11 10 -2 0 -4
-4 -4 -10z"/>
<path d="M1182 997 c-20 -55 -77 -81 -230 -102 -25 -3 -41 -2 -38 3 3 5 23 12
45 15 22 3 54 12 72 21 17 9 35 13 40 10 5 -3 21 2 36 10 27 14 26 14 -39 21
-36 4 -76 4 -89 0 -58 -18 -229 -164 -229 -195 0 -9 31 10 109 67 25 19 130
43 186 43 27 0 65 4 83 9 44 13 40 0 -12 -46 -49 -43 -91 -59 -176 -67 l-55
-6 45 15 c25 8 59 26 75 41 l30 25 -50 -6 c-56 -7 -155 -50 -155 -68 -2 -54
-33 -174 -59 -225 -30 -59 -31 -64 -16 -91 8 -16 27 -39 41 -50 15 -12 25 -24
22 -27 -10 -9 -75 54 -88 85 -11 26 -9 37 19 93 32 66 57 182 37 175 -6 -2
-16 -32 -23 -68 -7 -35 -29 -95 -48 -132 l-35 -69 50 -111 c34 -74 50 -120 48
-141 l-3 -31 -22 23 c-26 25 -30 44 -8 36 13 -5 13 -1 1 34 -8 22 -30 73 -49
115 l-35 75 30 60 c16 32 32 79 34 103 l5 44 -25 -29 c-13 -16 -37 -56 -53
-89 -29 -58 -29 -60 -16 -120 8 -34 15 -114 15 -177 1 -99 -2 -125 -23 -187
l-25 -73 300 2 301 3 -283 5 c-155 3 -282 9 -283 13 -1 4 5 27 12 51 l12 43
28 -31 c23 -26 29 -28 43 -17 10 8 16 29 16 52 0 25 5 39 13 39 35 0 61 72 35
98 -7 7 -9 12 -6 12 4 0 -6 26 -22 57 -27 54 -31 90 -7 60 22 -27 46 -28 63
-2 8 13 29 27 45 30 26 6 34 15 30 38 0 4 6 7 14 7 8 0 15 4 15 9 0 5 9 11 20
14 26 7 26 37 0 44 -16 4 -18 8 -9 19 6 8 17 14 23 14 18 0 46 38 46 63 0 12
14 35 31 51 31 32 45 66 35 91 -3 10 10 25 39 45 43 29 62 64 52 92 -2 7 4 23
15 34 13 15 18 33 16 55 l-3 33 -13 -37z m-193 -51 c-2 -2 -15 -9 -29 -15 -24
-11 -24 -11 -6 3 16 13 49 24 35 12z m-72 -205 c29 -15 101 -5 125 16 31 28
30 8 -2 -35 -28 -39 -73 -62 -122 -62 -35 0 -26 19 12 25 52 9 59 21 15 29
-36 7 -95 50 -95 69 0 6 10 1 23 -10 12 -11 32 -26 44 -32z m-17 -43 c0 -3 -6
-5 -12 -4 -22 3 -38 17 -38 32 0 12 4 12 25 -3 13 -10 25 -21 25 -25z m30 -63
c16 -4 40 -4 52 0 20 5 19 2 -10 -24 -18 -17 -42 -31 -54 -31 -26 0 -88 40
-88 57 0 7 11 1 25 -12 25 -26 49 -32 60 -16 3 5 -4 12 -15 16 -18 6 -60 54
-60 70 0 4 13 -7 30 -23 16 -17 43 -33 60 -37z m-17 -105 l39 -17 -33 -12
c-27 -9 -37 -8 -65 10 -38 23 -44 34 -14 24 11 -3 20 -4 20 0 0 3 -9 15 -20
27 -11 12 -20 28 -20 36 0 7 12 -1 27 -19 15 -17 45 -40 66 -49z m-95 -25 c7
-15 26 -32 42 -39 17 -7 27 -15 23 -19 -12 -13 -69 -7 -89 9 -18 15 -18 15 4
9 23 -7 23 -6 8 24 -18 34 -19 41 -8 41 5 0 14 -11 20 -25z m-114 -210 c31
-108 34 -157 9 -149 -17 5 -17 5 0 -9 19 -16 23 -37 7 -37 -12 0 -24 28 -35
80 -7 33 -6 34 9 15 15 -20 15 -19 16 6 0 14 -11 63 -25 109 -14 46 -25 88
-25 94 1 23 19 -22 44 -109z"/>
<path d="M845 914 l-30 -26 33 22 c17 12 32 23 32 26 0 7 -4 5 -35 -22z"/>
<path d="M375 890 c10 -11 20 -20 23 -20 3 0 -3 9 -13 20 -10 11 -20 20 -23
20 -3 0 3 -9 13 -20z"/>
<path d="M592 395 c-13 -84 -14 -170 -3 -220 6 -27 7 -28 15 -10 13 29 19 224
9 270 -9 39 -9 39 -21 -40z"/>
<path d="M433 235 c0 -8 4 -12 9 -9 5 3 6 10 3 15 -9 13 -12 11 -12 -6z"/>
<path d="M561 190 c0 -8 4 -22 9 -30 12 -18 12 -2 0 25 -6 13 -9 15 -9 5z"/>
</g>
</svg>
